<?xml version="1.0" standalone="no"?>
<!DOCTYPE svg PUBLIC "-//W3C//DTD SVG 20010904//EN"
 "http://www.w3.org/TR/2001/REC-SVG-20010904/DTD/svg10.dtd">
<svg version="1.0" xmlns="http://www.w3.org/2000/svg"
 width="46.000000pt" height="53.000000pt" viewBox="0 0 46.000000 53.000000"
 preserveAspectRatio="xMidYMid meet">

<g transform="translate(0.000000,53.000000) scale(0.100000,-0.100000)"
fill="#000000" stroke="none">
<path d="M223 489 c28 -16 21 -39 -13 -39 -16 0 -30 5 -30 10 0 15 -17 12 -46
-7 l-26 -17 22 -8 c18 -7 20 -11 10 -23 -16 -19 -47 -19 -57 0 -5 8 -13 11
-21 6 -9 -5 16 -22 73 -49 48 -23 93 -42 101 -42 7 0 37 14 66 32 l51 32 -27
9 c-35 12 -28 31 14 35 29 3 32 1 27 -17 -4 -17 -2 -18 14 -8 24 15 19 19 -81
61 -85 36 -110 44 -77 25z m84 -46 c6 -16 -45 -29 -59 -15 -6 6 -7 15 -3 22 9
14 57 9 62 -7z m-101 -58 c4 -9 19 -15 36 -15 23 0 29 -4 26 -17 -5 -27 -48
-30 -55 -4 -4 16 -11 19 -33 15 -28 -6 -46 8 -35 26 10 15 55 12 61 -5z"/>
<path d="M333 345 l-83 -55 0 -105 c0 -68 4 -105 11 -105 6 0 8 8 4 20 -8 24
11 60 30 60 15 0 19 -11 16 -38 -1 -7 23 4 53 24 l56 37 0 67 c0 67 0 67 -26
62 -22 -4 -25 -2 -22 19 1 13 13 28 26 34 12 5 22 15 22 22 0 16 8 20 -87 -42z
m35 -102 c3 -22 -22 -48 -38 -38 -14 8 -13 38 2 53 16 16 32 10 36 -15z"/>
<path d="M30 366 c0 -9 7 -12 20 -9 25 7 51 -40 32 -59 -9 -9 -15 -9 -24 0
-20 20 -23 14 -20 -38 2 -28 8 -47 13 -44 16 10 40 -18 37 -43 -2 -18 6 -29
40 -49 l43 -26 -7 26 c-5 22 -3 26 15 26 26 0 47 -36 31 -54 -8 -10 -7 -15 5
-20 13 -5 15 9 15 97 0 56 -4 107 -8 113 -6 10 -176 94 -188 94 -2 0 -4 -6 -4
-14z m168 -78 c19 -19 15 -60 -4 -56 -23 4 -39 32 -31 52 8 19 19 20 35 4z
m-58 -43 c15 -18 9 -50 -9 -50 -19 0 -36 29 -28 49 8 20 21 21 37 1z"/>
</g>
</svg>
